<mxfile host="app.diagrams.net" agent="Mozilla/5.0 (Windows NT 10.0; Win64; x64; rv:130.0) Gecko/20100101 Firefox/130.0" version="24.7.14">
  <diagram name="Страница — 1" id="ycBE9Uw_m0Uyuw0VL6rL">
    <mxGraphModel dx="1676" dy="527" grid="1" gridSize="10" guides="1" tooltips="1" connect="1" arrows="1" fold="1" page="1" pageScale="1" pageWidth="827" pageHeight="1169" math="0" shadow="0">
      <root>
        <mxCell id="0" />
        <mxCell id="1" parent="0" />
        <mxCell id="FCLQX8WhkADZpLjB1fGC-27" value="secret values" style="shape=table;startSize=30;container=1;collapsible=0;childLayout=tableLayout;strokeColor=default;fontSize=16;" vertex="1" parent="1">
          <mxGeometry x="480" y="410" width="424" height="190" as="geometry" />
        </mxCell>
        <mxCell id="FCLQX8WhkADZpLjB1fGC-28" value="" style="shape=tableRow;horizontal=0;startSize=0;swimlaneHead=0;swimlaneBody=0;strokeColor=inherit;top=0;left=0;bottom=0;right=0;collapsible=0;dropTarget=0;fillColor=none;points=[[0,0.5],[1,0.5]];portConstraint=eastwest;fontSize=16;" vertex="1" parent="FCLQX8WhkADZpLjB1fGC-27">
          <mxGeometry y="30" width="424" height="53" as="geometry" />
        </mxCell>
        <mxCell id="FCLQX8WhkADZpLjB1fGC-29" value="1" style="shape=partialRectangle;html=1;whiteSpace=wrap;connectable=0;strokeColor=inherit;overflow=hidden;fillColor=none;top=0;left=0;bottom=0;right=0;pointerEvents=1;fontSize=16;" vertex="1" parent="FCLQX8WhkADZpLjB1fGC-28">
          <mxGeometry width="24" height="53" as="geometry">
            <mxRectangle width="24" height="53" as="alternateBounds" />
          </mxGeometry>
        </mxCell>
        <mxCell id="FCLQX8WhkADZpLjB1fGC-30" value="" style="shape=partialRectangle;html=1;whiteSpace=wrap;connectable=0;strokeColor=inherit;overflow=hidden;fillColor=none;top=0;left=0;bottom=0;right=0;pointerEvents=1;fontSize=16;" vertex="1" parent="FCLQX8WhkADZpLjB1fGC-28">
          <mxGeometry x="24" width="116" height="53" as="geometry">
            <mxRectangle width="116" height="53" as="alternateBounds" />
          </mxGeometry>
        </mxCell>
        <mxCell id="FCLQX8WhkADZpLjB1fGC-31" value="" style="shape=partialRectangle;html=1;whiteSpace=wrap;connectable=0;strokeColor=inherit;overflow=hidden;fillColor=none;top=0;left=0;bottom=0;right=0;pointerEvents=1;fontSize=16;align=left;" vertex="1" parent="FCLQX8WhkADZpLjB1fGC-28">
          <mxGeometry x="140" width="284" height="53" as="geometry">
            <mxRectangle width="284" height="53" as="alternateBounds" />
          </mxGeometry>
        </mxCell>
        <mxCell id="FCLQX8WhkADZpLjB1fGC-32" value="" style="shape=tableRow;horizontal=0;startSize=0;swimlaneHead=0;swimlaneBody=0;strokeColor=inherit;top=0;left=0;bottom=0;right=0;collapsible=0;dropTarget=0;fillColor=none;points=[[0,0.5],[1,0.5]];portConstraint=eastwest;fontSize=16;" vertex="1" parent="FCLQX8WhkADZpLjB1fGC-27">
          <mxGeometry y="83" width="424" height="54" as="geometry" />
        </mxCell>
        <mxCell id="FCLQX8WhkADZpLjB1fGC-33" value="2" style="shape=partialRectangle;html=1;whiteSpace=wrap;connectable=0;strokeColor=inherit;overflow=hidden;fillColor=none;top=0;left=0;bottom=0;right=0;pointerEvents=1;fontSize=16;" vertex="1" parent="FCLQX8WhkADZpLjB1fGC-32">
          <mxGeometry width="24" height="54" as="geometry">
            <mxRectangle width="24" height="54" as="alternateBounds" />
          </mxGeometry>
        </mxCell>
        <mxCell id="FCLQX8WhkADZpLjB1fGC-34" value="" style="shape=partialRectangle;html=1;whiteSpace=wrap;connectable=0;strokeColor=inherit;overflow=hidden;fillColor=none;top=0;left=0;bottom=0;right=0;pointerEvents=1;fontSize=16;" vertex="1" parent="FCLQX8WhkADZpLjB1fGC-32">
          <mxGeometry x="24" width="116" height="54" as="geometry">
            <mxRectangle width="116" height="54" as="alternateBounds" />
          </mxGeometry>
        </mxCell>
        <mxCell id="FCLQX8WhkADZpLjB1fGC-35" value="" style="shape=partialRectangle;html=1;whiteSpace=wrap;connectable=0;strokeColor=inherit;overflow=hidden;fillColor=none;top=0;left=0;bottom=0;right=0;pointerEvents=1;fontSize=16;align=left;" vertex="1" parent="FCLQX8WhkADZpLjB1fGC-32">
          <mxGeometry x="140" width="284" height="54" as="geometry">
            <mxRectangle width="284" height="54" as="alternateBounds" />
          </mxGeometry>
        </mxCell>
        <mxCell id="FCLQX8WhkADZpLjB1fGC-36" value="" style="shape=tableRow;horizontal=0;startSize=0;swimlaneHead=0;swimlaneBody=0;strokeColor=inherit;top=0;left=0;bottom=0;right=0;collapsible=0;dropTarget=0;fillColor=none;points=[[0,0.5],[1,0.5]];portConstraint=eastwest;fontSize=16;" vertex="1" parent="FCLQX8WhkADZpLjB1fGC-27">
          <mxGeometry y="137" width="424" height="53" as="geometry" />
        </mxCell>
        <mxCell id="FCLQX8WhkADZpLjB1fGC-37" value="3" style="shape=partialRectangle;html=1;whiteSpace=wrap;connectable=0;strokeColor=inherit;overflow=hidden;fillColor=none;top=0;left=0;bottom=0;right=0;pointerEvents=1;fontSize=16;" vertex="1" parent="FCLQX8WhkADZpLjB1fGC-36">
          <mxGeometry width="24" height="53" as="geometry">
            <mxRectangle width="24" height="53" as="alternateBounds" />
          </mxGeometry>
        </mxCell>
        <mxCell id="FCLQX8WhkADZpLjB1fGC-38" value="" style="shape=partialRectangle;html=1;whiteSpace=wrap;connectable=0;strokeColor=inherit;overflow=hidden;fillColor=none;top=0;left=0;bottom=0;right=0;pointerEvents=1;fontSize=16;" vertex="1" parent="FCLQX8WhkADZpLjB1fGC-36">
          <mxGeometry x="24" width="116" height="53" as="geometry">
            <mxRectangle width="116" height="53" as="alternateBounds" />
          </mxGeometry>
        </mxCell>
        <mxCell id="FCLQX8WhkADZpLjB1fGC-39" value="" style="shape=partialRectangle;html=1;whiteSpace=wrap;connectable=0;strokeColor=inherit;overflow=hidden;fillColor=none;top=0;left=0;bottom=0;right=0;pointerEvents=1;fontSize=16;align=left;" vertex="1" parent="FCLQX8WhkADZpLjB1fGC-36">
          <mxGeometry x="140" width="284" height="53" as="geometry">
            <mxRectangle width="284" height="53" as="alternateBounds" />
          </mxGeometry>
        </mxCell>
        <mxCell id="FCLQX8WhkADZpLjB1fGC-1" value="current log" style="shape=table;startSize=30;container=1;collapsible=0;childLayout=tableLayout;strokeColor=default;fontSize=16;" vertex="1" parent="1">
          <mxGeometry x="210" y="100" width="424" height="190" as="geometry" />
        </mxCell>
        <mxCell id="FCLQX8WhkADZpLjB1fGC-2" value="" style="shape=tableRow;horizontal=0;startSize=0;swimlaneHead=0;swimlaneBody=0;strokeColor=inherit;top=0;left=0;bottom=0;right=0;collapsible=0;dropTarget=0;fillColor=none;points=[[0,0.5],[1,0.5]];portConstraint=eastwest;fontSize=16;" vertex="1" parent="FCLQX8WhkADZpLjB1fGC-1">
          <mxGeometry y="30" width="424" height="53" as="geometry" />
        </mxCell>
        <mxCell id="FCLQX8WhkADZpLjB1fGC-3" value="1" style="shape=partialRectangle;html=1;whiteSpace=wrap;connectable=0;strokeColor=inherit;overflow=hidden;fillColor=none;top=0;left=0;bottom=0;right=0;pointerEvents=1;fontSize=16;" vertex="1" parent="FCLQX8WhkADZpLjB1fGC-2">
          <mxGeometry width="24" height="53" as="geometry">
            <mxRectangle width="24" height="53" as="alternateBounds" />
          </mxGeometry>
        </mxCell>
        <mxCell id="FCLQX8WhkADZpLjB1fGC-4" value="DEBUG" style="shape=partialRectangle;html=1;whiteSpace=wrap;connectable=0;strokeColor=inherit;overflow=hidden;fillColor=none;top=0;left=0;bottom=0;right=0;pointerEvents=1;fontSize=16;" vertex="1" parent="FCLQX8WhkADZpLjB1fGC-2">
          <mxGeometry x="24" width="97" height="53" as="geometry">
            <mxRectangle width="97" height="53" as="alternateBounds" />
          </mxGeometry>
        </mxCell>
        <mxCell id="FCLQX8WhkADZpLjB1fGC-5" value="User&amp;nbsp; &amp;nbsp; &amp;nbsp; &amp;nbsp; &amp;nbsp; &amp;nbsp; &amp;nbsp; &amp;nbsp; &amp;nbsp; &amp;nbsp; &amp;nbsp;&amp;nbsp; is adding new documents [1,2,3]" style="shape=partialRectangle;html=1;whiteSpace=wrap;connectable=0;strokeColor=inherit;overflow=hidden;fillColor=none;top=0;left=0;bottom=0;right=0;pointerEvents=1;fontSize=16;align=left;" vertex="1" parent="FCLQX8WhkADZpLjB1fGC-2">
          <mxGeometry x="121" width="303" height="53" as="geometry">
            <mxRectangle width="303" height="53" as="alternateBounds" />
          </mxGeometry>
        </mxCell>
        <mxCell id="FCLQX8WhkADZpLjB1fGC-6" value="" style="shape=tableRow;horizontal=0;startSize=0;swimlaneHead=0;swimlaneBody=0;strokeColor=inherit;top=0;left=0;bottom=0;right=0;collapsible=0;dropTarget=0;fillColor=none;points=[[0,0.5],[1,0.5]];portConstraint=eastwest;fontSize=16;" vertex="1" parent="FCLQX8WhkADZpLjB1fGC-1">
          <mxGeometry y="83" width="424" height="54" as="geometry" />
        </mxCell>
        <mxCell id="FCLQX8WhkADZpLjB1fGC-7" value="2" style="shape=partialRectangle;html=1;whiteSpace=wrap;connectable=0;strokeColor=inherit;overflow=hidden;fillColor=none;top=0;left=0;bottom=0;right=0;pointerEvents=1;fontSize=16;" vertex="1" parent="FCLQX8WhkADZpLjB1fGC-6">
          <mxGeometry width="24" height="54" as="geometry">
            <mxRectangle width="24" height="54" as="alternateBounds" />
          </mxGeometry>
        </mxCell>
        <mxCell id="FCLQX8WhkADZpLjB1fGC-8" value="INFO" style="shape=partialRectangle;html=1;whiteSpace=wrap;connectable=0;strokeColor=inherit;overflow=hidden;fillColor=none;top=0;left=0;bottom=0;right=0;pointerEvents=1;fontSize=16;" vertex="1" parent="FCLQX8WhkADZpLjB1fGC-6">
          <mxGeometry x="24" width="97" height="54" as="geometry">
            <mxRectangle width="97" height="54" as="alternateBounds" />
          </mxGeometry>
        </mxCell>
        <mxCell id="FCLQX8WhkADZpLjB1fGC-9" value="User 4111@vtb.ru added documents [1]" style="shape=partialRectangle;html=1;whiteSpace=wrap;connectable=0;strokeColor=inherit;overflow=hidden;fillColor=none;top=0;left=0;bottom=0;right=0;pointerEvents=1;fontSize=16;align=left;" vertex="1" parent="FCLQX8WhkADZpLjB1fGC-6">
          <mxGeometry x="121" width="303" height="54" as="geometry">
            <mxRectangle width="303" height="54" as="alternateBounds" />
          </mxGeometry>
        </mxCell>
        <mxCell id="FCLQX8WhkADZpLjB1fGC-10" value="" style="shape=tableRow;horizontal=0;startSize=0;swimlaneHead=0;swimlaneBody=0;strokeColor=inherit;top=0;left=0;bottom=0;right=0;collapsible=0;dropTarget=0;fillColor=none;points=[[0,0.5],[1,0.5]];portConstraint=eastwest;fontSize=16;" vertex="1" parent="FCLQX8WhkADZpLjB1fGC-1">
          <mxGeometry y="137" width="424" height="53" as="geometry" />
        </mxCell>
        <mxCell id="FCLQX8WhkADZpLjB1fGC-11" value="3" style="shape=partialRectangle;html=1;whiteSpace=wrap;connectable=0;strokeColor=inherit;overflow=hidden;fillColor=none;top=0;left=0;bottom=0;right=0;pointerEvents=1;fontSize=16;" vertex="1" parent="FCLQX8WhkADZpLjB1fGC-10">
          <mxGeometry width="24" height="53" as="geometry">
            <mxRectangle width="24" height="53" as="alternateBounds" />
          </mxGeometry>
        </mxCell>
        <mxCell id="FCLQX8WhkADZpLjB1fGC-12" value="ERROR" style="shape=partialRectangle;html=1;whiteSpace=wrap;connectable=0;strokeColor=inherit;overflow=hidden;fillColor=none;top=0;left=0;bottom=0;right=0;pointerEvents=1;fontSize=16;" vertex="1" parent="FCLQX8WhkADZpLjB1fGC-10">
          <mxGeometry x="24" width="97" height="53" as="geometry">
            <mxRectangle width="97" height="53" as="alternateBounds" />
          </mxGeometry>
        </mxCell>
        <mxCell id="FCLQX8WhkADZpLjB1fGC-13" value="User 4111@vtb.ru got errors with documents [2,3]" style="shape=partialRectangle;html=1;whiteSpace=wrap;connectable=0;strokeColor=inherit;overflow=hidden;fillColor=none;top=0;left=0;bottom=0;right=0;pointerEvents=1;fontSize=16;align=left;" vertex="1" parent="FCLQX8WhkADZpLjB1fGC-10">
          <mxGeometry x="121" width="303" height="53" as="geometry">
            <mxRectangle width="303" height="53" as="alternateBounds" />
          </mxGeometry>
        </mxCell>
        <mxCell id="FCLQX8WhkADZpLjB1fGC-42" style="edgeStyle=orthogonalEdgeStyle;rounded=0;orthogonalLoop=1;jettySize=auto;html=1;" edge="1" parent="1" target="FCLQX8WhkADZpLjB1fGC-14">
          <mxGeometry relative="1" as="geometry">
            <mxPoint x="162" y="330" as="sourcePoint" />
          </mxGeometry>
        </mxCell>
        <mxCell id="FCLQX8WhkADZpLjB1fGC-14" value="masking log" style="shape=table;startSize=30;container=1;collapsible=0;childLayout=tableLayout;strokeColor=default;fontSize=16;" vertex="1" parent="1">
          <mxGeometry x="-50" y="410" width="424" height="190" as="geometry" />
        </mxCell>
        <mxCell id="FCLQX8WhkADZpLjB1fGC-15" value="" style="shape=tableRow;horizontal=0;startSize=0;swimlaneHead=0;swimlaneBody=0;strokeColor=inherit;top=0;left=0;bottom=0;right=0;collapsible=0;dropTarget=0;fillColor=none;points=[[0,0.5],[1,0.5]];portConstraint=eastwest;fontSize=16;" vertex="1" parent="FCLQX8WhkADZpLjB1fGC-14">
          <mxGeometry y="30" width="424" height="53" as="geometry" />
        </mxCell>
        <mxCell id="FCLQX8WhkADZpLjB1fGC-16" value="1" style="shape=partialRectangle;html=1;whiteSpace=wrap;connectable=0;strokeColor=inherit;overflow=hidden;fillColor=none;top=0;left=0;bottom=0;right=0;pointerEvents=1;fontSize=16;" vertex="1" parent="FCLQX8WhkADZpLjB1fGC-15">
          <mxGeometry width="24" height="53" as="geometry">
            <mxRectangle width="24" height="53" as="alternateBounds" />
          </mxGeometry>
        </mxCell>
        <mxCell id="FCLQX8WhkADZpLjB1fGC-17" value="DEBUG" style="shape=partialRectangle;html=1;whiteSpace=wrap;connectable=0;strokeColor=inherit;overflow=hidden;fillColor=none;top=0;left=0;bottom=0;right=0;pointerEvents=1;fontSize=16;" vertex="1" parent="FCLQX8WhkADZpLjB1fGC-15">
          <mxGeometry x="24" width="97" height="53" as="geometry">
            <mxRectangle width="97" height="53" as="alternateBounds" />
          </mxGeometry>
        </mxCell>
        <mxCell id="FCLQX8WhkADZpLjB1fGC-18" value="User &amp;nbsp; &amp;nbsp; &amp;nbsp; &amp;nbsp; &amp;nbsp;&amp;nbsp; &amp;nbsp; &amp;nbsp; &amp;nbsp; &amp;nbsp; &amp;nbsp;&amp;nbsp;&amp;nbsp;&amp;nbsp; is adding new documents [1,2,3]" style="shape=partialRectangle;html=1;whiteSpace=wrap;connectable=0;strokeColor=inherit;overflow=hidden;fillColor=none;top=0;left=0;bottom=0;right=0;pointerEvents=1;fontSize=16;align=left;" vertex="1" parent="FCLQX8WhkADZpLjB1fGC-15">
          <mxGeometry x="121" width="303" height="53" as="geometry">
            <mxRectangle width="303" height="53" as="alternateBounds" />
          </mxGeometry>
        </mxCell>
        <mxCell id="FCLQX8WhkADZpLjB1fGC-19" value="" style="shape=tableRow;horizontal=0;startSize=0;swimlaneHead=0;swimlaneBody=0;strokeColor=inherit;top=0;left=0;bottom=0;right=0;collapsible=0;dropTarget=0;fillColor=none;points=[[0,0.5],[1,0.5]];portConstraint=eastwest;fontSize=16;" vertex="1" parent="FCLQX8WhkADZpLjB1fGC-14">
          <mxGeometry y="83" width="424" height="54" as="geometry" />
        </mxCell>
        <mxCell id="FCLQX8WhkADZpLjB1fGC-20" value="2" style="shape=partialRectangle;html=1;whiteSpace=wrap;connectable=0;strokeColor=inherit;overflow=hidden;fillColor=none;top=0;left=0;bottom=0;right=0;pointerEvents=1;fontSize=16;" vertex="1" parent="FCLQX8WhkADZpLjB1fGC-19">
          <mxGeometry width="24" height="54" as="geometry">
            <mxRectangle width="24" height="54" as="alternateBounds" />
          </mxGeometry>
        </mxCell>
        <mxCell id="FCLQX8WhkADZpLjB1fGC-21" value="INFO" style="shape=partialRectangle;html=1;whiteSpace=wrap;connectable=0;strokeColor=inherit;overflow=hidden;fillColor=none;top=0;left=0;bottom=0;right=0;pointerEvents=1;fontSize=16;" vertex="1" parent="FCLQX8WhkADZpLjB1fGC-19">
          <mxGeometry x="24" width="97" height="54" as="geometry">
            <mxRectangle width="97" height="54" as="alternateBounds" />
          </mxGeometry>
        </mxCell>
        <mxCell id="FCLQX8WhkADZpLjB1fGC-22" value="User &amp;nbsp; &amp;nbsp; &amp;nbsp; &amp;nbsp; &amp;nbsp; &amp;nbsp; &amp;nbsp; &amp;nbsp; &amp;nbsp; &amp;nbsp; &amp;nbsp; &amp;nbsp; added documents [1]" style="shape=partialRectangle;html=1;whiteSpace=wrap;connectable=0;strokeColor=inherit;overflow=hidden;fillColor=none;top=0;left=0;bottom=0;right=0;pointerEvents=1;fontSize=16;align=left;" vertex="1" parent="FCLQX8WhkADZpLjB1fGC-19">
          <mxGeometry x="121" width="303" height="54" as="geometry">
            <mxRectangle width="303" height="54" as="alternateBounds" />
          </mxGeometry>
        </mxCell>
        <mxCell id="FCLQX8WhkADZpLjB1fGC-23" value="" style="shape=tableRow;horizontal=0;startSize=0;swimlaneHead=0;swimlaneBody=0;strokeColor=inherit;top=0;left=0;bottom=0;right=0;collapsible=0;dropTarget=0;fillColor=none;points=[[0,0.5],[1,0.5]];portConstraint=eastwest;fontSize=16;" vertex="1" parent="FCLQX8WhkADZpLjB1fGC-14">
          <mxGeometry y="137" width="424" height="53" as="geometry" />
        </mxCell>
        <mxCell id="FCLQX8WhkADZpLjB1fGC-24" value="3" style="shape=partialRectangle;html=1;whiteSpace=wrap;connectable=0;strokeColor=inherit;overflow=hidden;fillColor=none;top=0;left=0;bottom=0;right=0;pointerEvents=1;fontSize=16;" vertex="1" parent="FCLQX8WhkADZpLjB1fGC-23">
          <mxGeometry width="24" height="53" as="geometry">
            <mxRectangle width="24" height="53" as="alternateBounds" />
          </mxGeometry>
        </mxCell>
        <mxCell id="FCLQX8WhkADZpLjB1fGC-25" value="ERROR" style="shape=partialRectangle;html=1;whiteSpace=wrap;connectable=0;strokeColor=inherit;overflow=hidden;fillColor=none;top=0;left=0;bottom=0;right=0;pointerEvents=1;fontSize=16;" vertex="1" parent="FCLQX8WhkADZpLjB1fGC-23">
          <mxGeometry x="24" width="97" height="53" as="geometry">
            <mxRectangle width="97" height="53" as="alternateBounds" />
          </mxGeometry>
        </mxCell>
        <mxCell id="FCLQX8WhkADZpLjB1fGC-26" value="User &amp;nbsp; &amp;nbsp; &amp;nbsp; &amp;nbsp; &amp;nbsp; &amp;nbsp; &amp;nbsp; &amp;nbsp; &amp;nbsp; &amp;nbsp; &amp;nbsp; &amp;nbsp;  got errors with documents [2,3]" style="shape=partialRectangle;html=1;whiteSpace=wrap;connectable=0;strokeColor=inherit;overflow=hidden;fillColor=none;top=0;left=0;bottom=0;right=0;pointerEvents=1;fontSize=16;align=left;" vertex="1" parent="FCLQX8WhkADZpLjB1fGC-23">
          <mxGeometry x="121" width="303" height="53" as="geometry">
            <mxRectangle width="303" height="53" as="alternateBounds" />
          </mxGeometry>
        </mxCell>
        <mxCell id="FCLQX8WhkADZpLjB1fGC-43" style="edgeStyle=orthogonalEdgeStyle;rounded=0;orthogonalLoop=1;jettySize=auto;html=1;" edge="1" parent="1" target="FCLQX8WhkADZpLjB1fGC-27">
          <mxGeometry relative="1" as="geometry">
            <mxPoint x="692" y="330" as="sourcePoint" />
          </mxGeometry>
        </mxCell>
        <mxCell id="FCLQX8WhkADZpLjB1fGC-40" value="" style="shape=flexArrow;endArrow=classic;html=1;rounded=0;exitX=0.545;exitY=1;exitDx=0;exitDy=0;exitPerimeter=0;" edge="1" parent="1" source="FCLQX8WhkADZpLjB1fGC-10">
          <mxGeometry width="50" height="50" relative="1" as="geometry">
            <mxPoint x="390" y="380" as="sourcePoint" />
            <mxPoint x="440" y="330" as="targetPoint" />
          </mxGeometry>
        </mxCell>
        <mxCell id="FCLQX8WhkADZpLjB1fGC-41" value="" style="endArrow=none;html=1;rounded=0;" edge="1" parent="1">
          <mxGeometry width="50" height="50" relative="1" as="geometry">
            <mxPoint x="60" y="330" as="sourcePoint" />
            <mxPoint x="800" y="330" as="targetPoint" />
          </mxGeometry>
        </mxCell>
        <mxCell id="FCLQX8WhkADZpLjB1fGC-48" value="" style="rounded=1;whiteSpace=wrap;html=1;fillColor=#f8cecc;strokeColor=#b85450;" vertex="1" parent="1">
          <mxGeometry x="80" y="190" width="90" height="30" as="geometry" />
        </mxCell>
        <UserObject label="4111@vtb.ru" id="FCLQX8WhkADZpLjB1fGC-50">
          <mxCell style="rounded=1;whiteSpace=wrap;html=1;fillColor=#d5e8d4;strokeColor=#82b366;verticalAlign=middle;fontSize=16;" vertex="1" parent="1">
            <mxGeometry x="-10" y="110" width="100" height="20" as="geometry" />
          </mxCell>
        </UserObject>
        <UserObject label="4111@vtb.ru" id="FCLQX8WhkADZpLjB1fGC-51">
          <mxCell style="rounded=1;whiteSpace=wrap;html=1;fillColor=#d5e8d4;strokeColor=#82b366;verticalAlign=middle;fontSize=16;" vertex="1" parent="1">
            <mxGeometry x="367" y="138" width="100" height="20" as="geometry" />
          </mxCell>
        </UserObject>
        <UserObject label="4111@vtb.ru" id="FCLQX8WhkADZpLjB1fGC-52">
          <mxCell style="rounded=1;whiteSpace=wrap;html=1;fillColor=#d5e8d4;strokeColor=#82b366;verticalAlign=middle;fontSize=16;" vertex="1" parent="1">
            <mxGeometry x="366" y="200" width="100" height="20" as="geometry" />
          </mxCell>
        </UserObject>
        <UserObject label="4111@vtb.ru" id="FCLQX8WhkADZpLjB1fGC-53">
          <mxCell style="rounded=1;whiteSpace=wrap;html=1;fillColor=#d5e8d4;strokeColor=#82b366;verticalAlign=middle;fontSize=16;" vertex="1" parent="1">
            <mxGeometry x="366" y="245" width="100" height="20" as="geometry" />
          </mxCell>
        </UserObject>
        <UserObject label="4111@vtb.ru" id="FCLQX8WhkADZpLjB1fGC-54">
          <mxCell style="rounded=1;whiteSpace=wrap;html=1;fillColor=#d5e8d4;strokeColor=#82b366;verticalAlign=middle;fontSize=16;" vertex="1" parent="1">
            <mxGeometry x="650" y="460" width="100" height="20" as="geometry" />
          </mxCell>
        </UserObject>
        <UserObject label="9c9c9ab2 " id="FCLQX8WhkADZpLjB1fGC-55">
          <mxCell style="rounded=1;whiteSpace=wrap;html=1;fillColor=#f8cecc;strokeColor=#b85450;verticalAlign=middle;fontSize=16;" vertex="1" parent="1">
            <mxGeometry x="-10" y="138" width="100" height="20" as="geometry" />
          </mxCell>
        </UserObject>
        <UserObject label="9c9c9ab2 " id="FCLQX8WhkADZpLjB1fGC-56">
          <mxCell style="rounded=1;whiteSpace=wrap;html=1;fillColor=#f8cecc;strokeColor=#b85450;verticalAlign=middle;fontSize=16;" vertex="1" parent="1">
            <mxGeometry x="110" y="448" width="100" height="20" as="geometry" />
          </mxCell>
        </UserObject>
        <UserObject label="9c9c9ab2 " id="FCLQX8WhkADZpLjB1fGC-57">
          <mxCell style="rounded=1;whiteSpace=wrap;html=1;fillColor=#f8cecc;strokeColor=#b85450;verticalAlign=middle;fontSize=16;" vertex="1" parent="1">
            <mxGeometry x="112" y="510" width="100" height="20" as="geometry" />
          </mxCell>
        </UserObject>
        <UserObject label="9c9c9ab2 " id="FCLQX8WhkADZpLjB1fGC-59">
          <mxCell style="rounded=1;whiteSpace=wrap;html=1;fillColor=#f8cecc;strokeColor=#b85450;verticalAlign=middle;fontSize=16;" vertex="1" parent="1">
            <mxGeometry x="112" y="554" width="100" height="20" as="geometry" />
          </mxCell>
        </UserObject>
        <UserObject label="9c9c9ab2 " id="FCLQX8WhkADZpLjB1fGC-60">
          <mxCell style="rounded=1;whiteSpace=wrap;html=1;fillColor=#f8cecc;strokeColor=#b85450;verticalAlign=middle;fontSize=16;" vertex="1" parent="1">
            <mxGeometry x="510" y="460" width="100" height="20" as="geometry" />
          </mxCell>
        </UserObject>
      </root>
    </mxGraphModel>
  </diagram>
</mxfile>
